<?xml version="1.0" encoding="UTF-8"?>
<svg id="Layer_2" data-name="Layer 2" xmlns="http://www.w3.org/2000/svg" viewBox="0 0 920.55 921.26">
  <defs
      id="defs10158"
    >
    <filter
        id="filter11324"
      >
      <feGaussianBlur
          id="feGaussianBlur11326"
          stdDeviation="1.4286248"
      />
    </filter
    >
    <linearGradient
        id="linearGradient11354"
        y2="1030.6"
        gradientUnits="userSpaceOnUse"
        y1="1052.6"
        x2="1625.2"
        x1="1625.2"
      >
      <stop
          id="stop11298"
          stop-color="#b3b3b3"
          offset="0"
      />
      <stop
          id="stop11304"
          stop-color="#fff"
          offset=".5"
      />
      <stop
          id="stop11300"
          stop-color="#b3b3b3"
          offset="1"
      />
    </linearGradient
    >
    <linearGradient
        id="linearGradient11356"
        y2="983.12"
        gradientUnits="userSpaceOnUse"
        y1="965.15"
        x2="1640.1"
        x1="1640.1"
      >
      <stop
          id="stop11290"
          stop-color="#4d4d4d"
          offset="0"
      />
      <stop
          id="stop11292"
          stop-color="#b3b3b3"
          offset="1"
      />
    </linearGradient
    >
  </defs
  >
  <g
      id="layer2"
    >
    <g
        id="g11338"
        transform="translate(-792.86 -40.92)"
        fill-rule="evenodd"
      >
      <g
          id="g11328"
          transform="translate(-541.43 -252.88)"
        >
        <path
            id="path11306"
            filter="url(#filter11324)"
            fill="#4d4d4d"
            d="m1642.5 969.15-8.4688 78.125-18.719 19.625c-2.2034 2.3096 40.722 5.8111 91 5.8124 50.278 0 93.203-3.5027 91-5.8124l-18.719-19.625-8.4688-78.125h-127.62z"
        />
        <path
            id="path11257"
            fill="#b3b3b3"
            d="m1642.5 965.15-8.4688 78.125-18.719 19.625c-2.2034 2.3096 40.722 5.8111 91 5.8124 50.278 0 93.203-3.5027 91-5.8124l-18.719-19.625-8.4688-78.125h-127.62z"
        />
        <path
            id="path11261"
            fill="url(#linearGradient11354)"
            d="m1635.4 1030.6-1.375 12.656-8.875 9.3126h162.31l-8.875-9.3126-1.375-12.656h-141.81z"
        />
        <path
            id="path11273"
            fill="url(#linearGradient11356)"
            d="m1642.5 965.15-2.375 21.969h132.38l-2.375-21.969h-127.62z"
        />
      </g
      >
      <path
          id="path11209"
          d="m841.16 310.94c-6.1846 0-11.164 4.979-11.164 11.164v379.98c0 6.1846 4.979 11.164 11.164 11.164h647.49c6.1846 0 11.164-4.979 11.164-11.164v-379.98c0-6.1846-4.9789-11.164-11.164-11.164h-647.49zm16.745 28.118h614v346.07h-614v-346.07z"
      />
    </g
    >
  </g
  >
  <metadata
    >
    <rdf:RDF
      >
      <cc:Work
        >
        <dc:format
          >image/svg+xml</dc:format
        >
        <dc:type
            rdf:resource="http://purl.org/dc/dcmitype/StillImage"
        />
        <cc:license
            rdf:resource="http://creativecommons.org/licenses/publicdomain/"
        />
        <dc:publisher
          >
          <cc:Agent
              rdf:about="http://openclipart.org/"
            >
            <dc:title
              >Openclipart</dc:title
            >
          </cc:Agent
          >
        </dc:publisher
        >
        <dc:title
          >Monitor</dc:title
        >
        <dc:date
          >2013-08-05T13:07:18</dc:date
        >
        <dc:description
          >Monitor</dc:description
        >
        <dc:source
          >https://openclipart.org/detail/181541/monitor-by-ribbla-181541</dc:source
        >
        <dc:creator
          >
          <cc:Agent
            >
            <dc:title
              >ribbla</dc:title
            >
          </cc:Agent
          >
        </dc:creator
        >
        <dc:subject
          >
          <rdf:Bag
            >
            <rdf:li
              >Monitor RibblaTeam</rdf:li
            >
          </rdf:Bag
          >
        </dc:subject
        >
      </cc:Work
      >
      <cc:License
          rdf:about="http://creativecommons.org/licenses/publicdomain/"
        >
        <cc:permits
            rdf:resource="http://creativecommons.org/ns#Reproduction"
        />
        <cc:permits
            rdf:resource="http://creativecommons.org/ns#Distribution"
        />
        <cc:permits
            rdf:resource="http://creativecommons.org/ns#DerivativeWorks"
        />
      </cc:License
      >
    </rdf:RDF
    >
  </metadata
  >
</svg>