<svg xmlns="http://www.w3.org/2000/svg" xmlns:xlink="http://www.w3.org/1999/xlink" style="margin:auto;background:#000000;display:block;z-index:1;position:relative" width="1533" height="750" preserveAspectRatio="xMidYMid" viewBox="0 0 1533 750">
<g transform="translate(766.5,375) scale(1,1) translate(-766.5,-375)"><path id="path0" d="M 1131.188123876357 553.7465595249618
c 0 35.58464805645601 -8.706881971260513 10.22112231408843 -18.928004285348944 10.22112231408843
S 1093.3321153056593 589.3312075814177 1093.3321153056593 553.7465595249618
s 8.706881971260513 -10.22112231408843 18.928004285348944 -10.22112231408843
S 1131.188123876357 518.1619114685058 1131.188123876357 553.7465595249618
z" fill="none" stroke="none"></path>
<circle cx="0" cy="0" r="1.3163009870929692" fill="#ffffff" opacity="0.9">
  <animateMotion begin="-12.353973606415217s" dur="13.19s" repeatCount="indefinite">
    <mpath xlink:href="#path0"></mpath>
  </animateMotion>
</circle><path id="path1" d="M 574.7316194195984 650.350859164831
c 0 33.84132542096973 -8.28032430513089 9.72038070602322 -18.00070501115411 9.72038070602322
S 538.7302093972902 684.1921845858008 538.7302093972902 650.350859164831
s 8.28032430513089 -9.72038070602322 18.00070501115411 -9.72038070602322
S 574.7316194195984 616.5095337438613 574.7316194195984 650.350859164831
z" fill="none" stroke="none"></path>
<circle cx="0" cy="0" r="1.1085027398103342" fill="#666666" opacity="0.9">
  <animateMotion begin="-4.100977883595007s" dur="13.19s" repeatCount="indefinite">
    <mpath xlink:href="#path1"></mpath>
  </animateMotion>
</circle><path id="path2" d="M 804.4398249512639 578.6003509277424
c 0 24.191155458417494 -5.919112505783003 6.948523376353962 -12.867635882136966 6.948523376353962
S 778.70455318699 602.7915063861599 778.70455318699 578.6003509277424
s 5.919112505783003 -6.948523376353962 12.867635882136966 -6.948523376353962
S 804.4398249512639 554.4091954693249 804.4398249512639 578.6003509277424
z" fill="none" stroke="none"></path>
<circle cx="0" cy="0" r="1.1559614064458492" fill="#666666" opacity="0.9">
  <animateMotion begin="-2.239784298209658s" dur="13.19s" repeatCount="indefinite">
    <mpath xlink:href="#path2"></mpath>
  </animateMotion>
</circle><path id="path3" d="M 1220.6762309906744 700.4516448328045
c 0 32.3694283221074 -7.920179270302875 9.29760175209468 -17.217781022397556 9.29760175209468
S 1186.2406689458794 732.8210731549119 1186.2406689458794 700.4516448328045
s 7.920179270302875 -9.29760175209468 17.217781022397556 -9.29760175209468
S 1220.6762309906744 668.0822165106971 1220.6762309906744 700.4516448328045
z" fill="none" stroke="none"></path>
<circle cx="0" cy="0" r="1.2681389280399107" fill="#666666" opacity="0.9">
  <animateMotion begin="-5.2851843007814665s" dur="13.19s" repeatCount="indefinite">
    <mpath xlink:href="#path3"></mpath>
  </animateMotion>
</circle><path id="path4" d="M 1129.445845723378 336.9068630936942
c 0 28.976198158719274 -7.0899208260696085 8.322950534951282 -15.41287136102089 8.322950534951282
S 1098.620103001336 365.8830612524135 1098.620103001336 336.9068630936942
s 7.0899208260696085 -8.322950534951282 15.41287136102089 -8.322950534951282
S 1129.445845723378 307.9306649349749 1129.445845723378 336.9068630936942
z" fill="none" stroke="none"></path>
<circle cx="0" cy="0" r="1.2727578225101044" fill="#d4d4d4" opacity="0.9">
  <animateMotion begin="-8.549949390107829s" dur="13.19s" repeatCount="indefinite">
    <mpath xlink:href="#path4"></mpath>
  </animateMotion>
</circle><path id="path5" d="M 1122.1873216465287 403.660563944308
c 0 20.56032885474628 -5.030718762331536 5.905626373171804 -10.936345135503341 5.905626373171804
S 1100.314631375522 424.2208927990543 1100.314631375522 403.660563944308
s 5.030718762331536 -5.905626373171804 10.936345135503341 -5.905626373171804
S 1122.1873216465287 383.10023508956175 1122.1873216465287 403.660563944308
z" fill="none" stroke="none"></path>
<circle cx="0" cy="0" r="1.249422811269576" fill="#d4d4d4" opacity="0.9">
  <animateMotion begin="-7.438379653823788s" dur="13.19s" repeatCount="indefinite">
    <mpath xlink:href="#path5"></mpath>
  </animateMotion>
</circle><path id="path6" d="M 400.41355604740556 359.81657999711575
c 0 25.57805824798573 -6.258461060677359 7.346889071229945 -13.605350131907304 7.346889071229945
S 373.20285578359096 385.3946382451015 373.20285578359096 359.81657999711575
s 6.258461060677359 -7.346889071229945 13.605350131907304 -7.346889071229945
S 400.41355604740556 334.23852174913003 400.41355604740556 359.81657999711575
z" fill="none" stroke="none"></path>
<circle cx="0" cy="0" r="1.4198784207458397" fill="#d4d4d4" opacity="0.9">
  <animateMotion begin="-6.186237532343681s" dur="13.19s" repeatCount="indefinite">
    <mpath xlink:href="#path6"></mpath>
  </animateMotion>
</circle><path id="path7" d="M 1251.4119237542282 596.3381846934194
c 0 20.695133519831057 -5.063702882511853 5.944346862079133 -11.008049744590986 5.944346862079133
S 1229.395824265046 617.0333182132505 1229.395824265046 596.3381846934194
s 5.063702882511853 -5.944346862079133 11.008049744590986 -5.944346862079133
S 1251.4119237542282 575.6430511735883 1251.4119237542282 596.3381846934194
z" fill="none" stroke="none"></path>
<circle cx="0" cy="0" r="1.1696583395085876" fill="#353535" opacity="0.9">
  <animateMotion begin="-5.776886895482175s" dur="13.19s" repeatCount="indefinite">
    <mpath xlink:href="#path7"></mpath>
  </animateMotion>
</circle><path id="path8" d="M 1512.258451687557 509.724052398967
c 0 25.12947586357863 -6.148701541088387 7.218040939538542 -13.366742480626929 7.218040939538542
S 1485.524966726303 534.8535282625456 1485.524966726303 509.724052398967
s 6.148701541088387 -7.218040939538542 13.366742480626929 -7.218040939538542
S 1512.258451687557 484.59457653538834 1512.258451687557 509.724052398967
z" fill="none" stroke="none"></path>
<circle cx="0" cy="0" r="0.8871925060555033" fill="#d4d4d4" opacity="0.9">
  <animateMotion begin="-8.653611887936334s" dur="13.19s" repeatCount="indefinite">
    <mpath xlink:href="#path8"></mpath>
  </animateMotion>
</circle><path id="path9" d="M 455.9412129269048 208.85142128921728
c 0 20.56972837558393 -5.033018645089685 5.908326235540065 -10.941344880629751 5.908326235540065
S 434.05852316564534 229.42114966480122 434.05852316564534 208.85142128921728
s 5.033018645089685 -5.908326235540065 10.941344880629751 -5.908326235540065
S 455.9412129269048 188.28169291363335 455.9412129269048 208.85142128921728
z" fill="none" stroke="none"></path>
<circle cx="0" cy="0" r="1.4796677005600056" fill="#d4d4d4" opacity="0.9">
  <animateMotion begin="-12.066061530595883s" dur="13.19s" repeatCount="indefinite">
    <mpath xlink:href="#path9"></mpath>
  </animateMotion>
</circle><path id="path10" d="M 745.018502716698 90.93562541919682
c 0 31.991609752152378 -7.82773430105856 9.189079396894833 -17.016813697953392 9.189079396894833
S 710.9848753207913 122.9272351713492 710.9848753207913 90.93562541919682
s 7.82773430105856 -9.189079396894833 17.016813697953392 -9.189079396894833
S 745.018502716698 58.94401566704445 745.018502716698 90.93562541919682
z" fill="none" stroke="none"></path>
<circle cx="0" cy="0" r="1.0335169008094716" fill="#9b9b9b" opacity="0.9">
  <animateMotion begin="-10.456903468608092s" dur="13.19s" repeatCount="indefinite">
    <mpath xlink:href="#path10"></mpath>
  </animateMotion>
</circle><path id="path11" d="M 1164.9841768633362 701.7920170745584
c 0 18.940881285702776 -4.634470952884721 5.4404659012125 -10.07493685409722 5.4404659012125
S 1144.834303155142 720.7328983602612 1144.834303155142 701.7920170745584
s 4.634470952884721 -5.4404659012125 10.07493685409722 -5.4404659012125
S 1164.9841768633362 682.8511357888557 1164.9841768633362 701.7920170745584
z" fill="none" stroke="none"></path>
<circle cx="0" cy="0" r="0.9497405728525932" fill="#353535" opacity="0.9">
  <animateMotion begin="-8.595081318371141s" dur="13.19s" repeatCount="indefinite">
    <mpath xlink:href="#path11"></mpath>
  </animateMotion>
</circle><path id="path12" d="M 624.2237989329535 46.06139690628426
c 0 26.164843295483305 -6.402036125490595 7.515433712532438 -13.917469838023033 7.515433712532438
S 596.3888592569074 72.22624020176757 596.3888592569074 46.06139690628426
s 6.402036125490595 -7.515433712532438 13.917469838023033 -7.515433712532438
S 624.2237989329535 19.896553610800954 624.2237989329535 46.06139690628426
z" fill="none" stroke="none"></path>
<circle cx="0" cy="0" r="1.1382395362148294" fill="#d4d4d4" opacity="0.9">
  <animateMotion begin="-3.356018630698531s" dur="13.19s" repeatCount="indefinite">
    <mpath xlink:href="#path12"></mpath>
  </animateMotion>
</circle><path id="path13" d="M 958.5990946073447 744.5746383240443
c 0 25.657089798136035 -6.27779856762903 7.369589622868862 -13.64738819049789 7.369589622868862
S 931.304318226349 770.2317281221802 931.304318226349 744.5746383240443
s 6.27779856762903 -7.369589622868862 13.64738819049789 -7.369589622868862
S 958.5990946073447 718.9175485259083 958.5990946073447 744.5746383240443
z" fill="none" stroke="none"></path>
<circle cx="0" cy="0" r="1.0324995296199715" fill="#d4d4d4" opacity="0.9">
  <animateMotion begin="-0.4180232285774026s" dur="13.19s" repeatCount="indefinite">
    <mpath xlink:href="#path13"></mpath>
  </animateMotion>
</circle><path id="path14" d="M 1384.2817128664951 49.91167443109938
c 0 19.892571861800825 -4.867331412993818 5.713823832644918 -10.581155245638737 5.713823832644918
S 1363.1194023752178 69.8042462929002 1363.1194023752178 49.91167443109938
s 4.867331412993818 -5.713823832644918 10.581155245638737 -5.713823832644918
S 1384.2817128664951 30.019102569298553 1384.2817128664951 49.91167443109938
z" fill="none" stroke="none"></path>
<circle cx="0" cy="0" r="1.4864900745918752" fill="#666666" opacity="0.9">
  <animateMotion begin="-0.6913288210951083s" dur="13.19s" repeatCount="indefinite">
    <mpath xlink:href="#path14"></mpath>
  </animateMotion>
</circle><path id="path15" d="M 1395.730322473861 172.6475427362502
c 0 18.976350960635205 -4.643149703134145 5.450653999331388 -10.093803702465534 5.450653999331388
S 1375.54271506893 191.6238936968854 1375.54271506893 172.6475427362502
s 4.643149703134145 -5.450653999331388 10.093803702465534 -5.450653999331388
S 1395.730322473861 153.67119177561497 1395.730322473861 172.6475427362502
z" fill="none" stroke="none"></path>
<circle cx="0" cy="0" r="1.0525354018688606" fill="#d4d4d4" opacity="0.9">
  <animateMotion begin="-12.654252728946778s" dur="13.19s" repeatCount="indefinite">
    <mpath xlink:href="#path15"></mpath>
  </animateMotion>
</circle><path id="path16" d="M 1415.3964177824662 325.47900984430777
c 0 36.78709071788314 -9.001096665013957 10.566504780668561 -19.56760144568252 10.566504780668561
S 1376.261214891101 362.2661005621909 1376.261214891101 325.47900984430777
s 9.001096665013957 -10.566504780668561 19.56760144568252 -10.566504780668561
S 1415.3964177824662 288.69191912642464 1415.3964177824662 325.47900984430777
z" fill="none" stroke="none"></path>
<circle cx="0" cy="0" r="1.281907394402706" fill="#666666" opacity="0.9">
  <animateMotion begin="-5.5499489750291895s" dur="13.19s" repeatCount="indefinite">
    <mpath xlink:href="#path16"></mpath>
  </animateMotion>
</circle><path id="path17" d="M 992.4140282202791 621.2335083866008
c 0 30.465853013131866 -7.454410843638648 8.750830120793196 -16.205240964431844 8.750830120793196
S 960.0035462914154 651.6993613997327 960.0035462914154 621.2335083866008
s 7.454410843638648 -8.750830120793196 16.205240964431844 -8.750830120793196
S 992.4140282202791 590.7676553734689 992.4140282202791 621.2335083866008
z" fill="none" stroke="none"></path>
<circle cx="0" cy="0" r="1.4625538884491756" fill="#666666" opacity="0.9">
  <animateMotion begin="-7.950043648826817s" dur="13.19s" repeatCount="indefinite">
    <mpath xlink:href="#path17"></mpath>
  </animateMotion>
</circle><path id="path18" d="M 1341.4364984558063 93.65175315475558
c 0 33.36613123370478 -8.164053386970318 9.58388875861733 -17.747942145587647 9.58388875861733
S 1305.9406141646311 127.01788438846036 1305.9406141646311 93.65175315475558
s 8.164053386970318 -9.58388875861733 17.747942145587647 -9.58388875861733
S 1341.4364984558063 60.285621921050804 1341.4364984558063 93.65175315475558
z" fill="none" stroke="none"></path>
<circle cx="0" cy="0" r="0.8304568741477716" fill="#ffffff" opacity="0.9">
  <animateMotion begin="-10.844237114923033s" dur="13.19s" repeatCount="indefinite">
    <mpath xlink:href="#path18"></mpath>
  </animateMotion>
</circle><path id="path19" d="M 486.31278900321416 138.07558130740193
c 0 36.99377722233156 -9.051668894825806 10.62587218088247 -19.677541075708277 10.62587218088247
S 446.9577068517976 175.0693585297335 446.9577068517976 138.07558130740193
s 9.051668894825806 -10.62587218088247 19.677541075708277 -10.62587218088247
S 486.31278900321416 101.08180408507037 486.31278900321416 138.07558130740193
z" fill="none" stroke="none"></path>
<circle cx="0" cy="0" r="1.2492582088818223" fill="#666666" opacity="0.9">
  <animateMotion begin="-1.330103577373475s" dur="13.19s" repeatCount="indefinite">
    <mpath xlink:href="#path19"></mpath>
  </animateMotion>
</circle><path id="path20" d="M 1305.6336765637418 686.006333920273
c 0 34.348964478442554 -8.40453386174658 9.86619192465903 -18.270725786405613 9.86619192465903
S 1269.0922249909306 720.3552983987156 1269.0922249909306 686.006333920273
s 8.40453386174658 -9.86619192465903 18.270725786405613 -9.86619192465903
S 1305.6336765637418 651.6573694418305 1305.6336765637418 686.006333920273
z" fill="none" stroke="none"></path>
<circle cx="0" cy="0" r="1.2652778716793684" fill="#9b9b9b" opacity="0.9">
  <animateMotion begin="-11.572302530649699s" dur="13.19s" repeatCount="indefinite">
    <mpath xlink:href="#path20"></mpath>
  </animateMotion>
</circle><path id="path21" d="M 1511.2256510249163 704.1736239468684
c 0 24.236900722233205 -5.9303054958655705 6.96166297340741 -12.891968469272982 6.96166297340741
S 1485.4417140863702 728.4105246691016 1485.4417140863702 704.1736239468684
s 5.9303054958655705 -6.96166297340741 12.891968469272982 -6.96166297340741
S 1511.2256510249163 679.9367232246351 1511.2256510249163 704.1736239468684
z" fill="none" stroke="none"></path>
<circle cx="0" cy="0" r="1.1158201599266242" fill="#666666" opacity="0.9">
  <animateMotion begin="-10.8317238480814s" dur="13.19s" repeatCount="indefinite">
    <mpath xlink:href="#path21"></mpath>
  </animateMotion>
</circle><path id="path22" d="M 1436.6425730979643 319.2957190519659
c 0 23.270634394496334 -5.693878628440592 6.684118389908522 -12.377997018349113 6.684118389908522
S 1411.886579061266 342.5663534464622 1411.886579061266 319.2957190519659
s 5.693878628440592 -6.684118389908522 12.377997018349113 -6.684118389908522
S 1436.6425730979643 296.02508465746956 1436.6425730979643 319.2957190519659
z" fill="none" stroke="none"></path>
<circle cx="0" cy="0" r="1.0487159458323332" fill="#ffffff" opacity="0.9">
  <animateMotion begin="-7.828218209149761s" dur="13.19s" repeatCount="indefinite">
    <mpath xlink:href="#path22"></mpath>
  </animateMotion>
</circle><path id="path23" d="M 1140.482353205633 381.97470963054207
c 0 33.056282961806204 -8.088239448101517 9.494889786901782 -17.583129235003298 9.494889786901782
S 1105.3160947356264 415.0309925923483 1105.3160947356264 381.97470963054207
s 8.088239448101517 -9.494889786901782 17.583129235003298 -9.494889786901782
S 1140.482353205633 348.91842666873583 1140.482353205633 381.97470963054207
z" fill="none" stroke="none"></path>
<circle cx="0" cy="0" r="0.912313134756928" fill="#353535" opacity="0.9">
  <animateMotion begin="-1.0347065703833784s" dur="13.19s" repeatCount="indefinite">
    <mpath xlink:href="#path23"></mpath>
  </animateMotion>
</circle><path id="path24" d="M 330.00058191306397 230.91685754183342
c 0 22.251531703488073 -5.444523714683251 6.391397404193382 -11.835921118876634 6.391397404193382
S 306.3287396753107 253.1683892453215 306.3287396753107 230.91685754183342
s 5.444523714683251 -6.391397404193382 11.835921118876634 -6.391397404193382
S 330.00058191306397 208.66532583834535 330.00058191306397 230.91685754183342
z" fill="none" stroke="none"></path>
<circle cx="0" cy="0" r="0.9108890869129644" fill="#666666" opacity="0.9">
  <animateMotion begin="-2.1275216119095197s" dur="13.19s" repeatCount="indefinite">
    <mpath xlink:href="#path24"></mpath>
  </animateMotion>
</circle><path id="path25" d="M 380.67950152918553 63.50392014737457
c 0 24.589291074191145 -6.016528667089322 7.062881478757031 -13.079410145846353 7.062881478757031
S 354.52068123749285 88.09321122156572 354.52068123749285 63.50392014737457
s 6.016528667089322 -7.062881478757031 13.079410145846353 -7.062881478757031
S 380.67950152918553 38.91462907318343 380.67950152918553 63.50392014737457
z" fill="none" stroke="none"></path>
<circle cx="0" cy="0" r="1.117132462865463" fill="#353535" opacity="0.9">
  <animateMotion begin="-1.1217436666066978s" dur="13.19s" repeatCount="indefinite">
    <mpath xlink:href="#path25"></mpath>
  </animateMotion>
</circle><path id="path26" d="M 1297.733068026008 554.816274181188
c 0 24.132943678540222 -5.904869197940692 6.931802971495595 -12.836672169436287 6.931802971495595
S 1272.0597236871354 578.9492178597282 1272.0597236871354 554.816274181188
s 5.904869197940692 -6.931802971495595 12.836672169436287 -6.931802971495595
S 1297.733068026008 530.6833305026478 1297.733068026008 554.816274181188
z" fill="none" stroke="none"></path>
<circle cx="0" cy="0" r="0.9865874816967015" fill="#d4d4d4" opacity="0.9">
  <animateMotion begin="-12.78918478723949s" dur="13.19s" repeatCount="indefinite">
    <mpath xlink:href="#path26"></mpath>
  </animateMotion>
</circle><path id="path27" d="M 1039.6609101599347 200.15461242962422
c 0 21.690210764007148 -5.30717922949111 6.230166921576521 -11.53734615106763 6.230166921576521
S 1016.5862178577995 221.84482319363138 1016.5862178577995 200.15461242962422
s 5.30717922949111 -6.230166921576521 11.53734615106763 -6.230166921576521
S 1039.6609101599347 178.46440166561706 1039.6609101599347 200.15461242962422
z" fill="none" stroke="none"></path>
<circle cx="0" cy="0" r="1.2091344990737514" fill="#9b9b9b" opacity="0.9">
  <animateMotion begin="-2.0587798642406554s" dur="13.19s" repeatCount="indefinite">
    <mpath xlink:href="#path27"></mpath>
  </animateMotion>
</circle><path id="path28" d="M 291.0660284033149 223.1726288370356
c 0 35.87594509030403 -8.778156777414816 10.30479273870435 -19.082949516119164 10.30479273870435
S 252.90012937107653 259.04857392733965 252.90012937107653 223.1726288370356
s 8.778156777414816 -10.30479273870435 19.082949516119164 -10.30479273870435
S 291.0660284033149 187.29668374673156 291.0660284033149 223.1726288370356
z" fill="none" stroke="none"></path>
<circle cx="0" cy="0" r="0.8117982182877954" fill="#ffffff" opacity="0.9">
  <animateMotion begin="-4.645443303823638s" dur="13.19s" repeatCount="indefinite">
    <mpath xlink:href="#path28"></mpath>
  </animateMotion>
</circle><path id="path29" d="M 1483.7409131356997 219.15278747045045
c 0 23.425716867380245 -5.731824339890911 6.728663355524113 -12.460487695415024 6.728663355524113
S 1458.8199377448698 242.57850433783068 1458.8199377448698 219.15278747045045
s 5.731824339890911 -6.728663355524113 12.460487695415024 -6.728663355524113
S 1483.7409131356997 195.72707060307022 1483.7409131356997 219.15278747045045
z" fill="none" stroke="none"></path>
<circle cx="0" cy="0" r="0.9421478517836102" fill="#666666" opacity="0.9">
  <animateMotion begin="-10.677289689150388s" dur="13.19s" repeatCount="indefinite">
    <mpath xlink:href="#path29"></mpath>
  </animateMotion>
</circle><path id="path30" d="M 1542.9468606169637 692.2126828725826
c 0 26.66471592207415 -6.524345385188355 7.65901414782981 -14.183359533018166 7.65901414782981
S 1514.5801415509275 718.8773987946568 1514.5801415509275 692.2126828725826
s 6.524345385188355 -7.65901414782981 14.183359533018166 -7.65901414782981
S 1542.9468606169637 665.5479669505085 1542.9468606169637 692.2126828725826
z" fill="none" stroke="none"></path>
<circle cx="0" cy="0" r="1.4713992994064469" fill="#353535" opacity="0.9">
  <animateMotion begin="-2.4340802636456984s" dur="13.19s" repeatCount="indefinite">
    <mpath xlink:href="#path30"></mpath>
  </animateMotion>
</circle><path id="path31" d="M 76.85721550828407 67.29999953901063
c 0 26.678498540732086 -6.527717728051467 7.662972985103898 -14.190690713155366 7.662972985103898
S 48.47583408197333 93.9784980797427 48.47583408197333 67.29999953901063
s 6.527717728051467 -7.662972985103898 14.190690713155366 -7.662972985103898
S 76.85721550828407 40.62150099827854 76.85721550828407 67.29999953901063
z" fill="none" stroke="none"></path>
<circle cx="0" cy="0" r="1.1943529772743675" fill="#666666" opacity="0.9">
  <animateMotion begin="-0.10251559244531284s" dur="13.19s" repeatCount="indefinite">
    <mpath xlink:href="#path31"></mpath>
  </animateMotion>
</circle><path id="path32" d="M 798.989658189861 194.87321028710946
c 0 31.57503081033422 -7.725805411039223 9.069423743393871 -16.795229154433095 9.069423743393871
S 765.3991998809948 226.44824109744368 765.3991998809948 194.87321028710946
s 7.725805411039223 -9.069423743393871 16.795229154433095 -9.069423743393871
S 798.989658189861 163.29817947677523 798.989658189861 194.87321028710946
z" fill="none" stroke="none"></path>
<circle cx="0" cy="0" r="0.932431526606016" fill="#666666" opacity="0.9">
  <animateMotion begin="-8.503455920729564s" dur="13.19s" repeatCount="indefinite">
    <mpath xlink:href="#path32"></mpath>
  </animateMotion>
</circle><path id="path33" d="M 831.1531069391441 245.68215776489777
c 0 36.34567161013382 -8.893089862054019 10.439714185889502 -19.332804047943522 10.439714185889502
S 792.487498843257 282.0278293750316 792.487498843257 245.68215776489777
s 8.893089862054019 -10.439714185889502 19.332804047943522 -10.439714185889502
S 831.1531069391441 209.33648615476395 831.1531069391441 245.68215776489777
z" fill="none" stroke="none"></path>
<circle cx="0" cy="0" r="1.2555380461998138" fill="#d4d4d4" opacity="0.9">
  <animateMotion begin="-8.225099004546639s" dur="13.19s" repeatCount="indefinite">
    <mpath xlink:href="#path33"></mpath>
  </animateMotion>
</circle><path id="path34" d="M 1177.755098125023 121.84267902038576
c 0 35.14370195333315 -8.598990903475132 10.094467582340373 -18.693458485815505 10.094467582340373
S 1140.3681811533922 156.9863809737189 1140.3681811533922 121.84267902038576
s 8.598990903475132 -10.094467582340373 18.693458485815505 -10.094467582340373
S 1177.755098125023 86.69897706705261 1177.755098125023 121.84267902038576
z" fill="none" stroke="none"></path>
<circle cx="0" cy="0" r="0.9483177097052494" fill="#353535" opacity="0.9">
  <animateMotion begin="-6.142736901267738s" dur="13.19s" repeatCount="indefinite">
    <mpath xlink:href="#path34"></mpath>
  </animateMotion>
</circle><path id="path35" d="M 689.9941228931474 326.5888135936567
c 0 35.27476904595655 -8.631060511244689 10.132114513200287 -18.763175024444976 10.132114513200287
S 652.4677728442574 361.86358263961324 652.4677728442574 326.5888135936567
s 8.631060511244689 -10.132114513200287 18.763175024444976 -10.132114513200287
S 689.9941228931474 291.3140445477002 689.9941228931474 326.5888135936567
z" fill="none" stroke="none"></path>
<circle cx="0" cy="0" r="1.4213117744080037" fill="#9b9b9b" opacity="0.9">
  <animateMotion begin="-5.212677930773982s" dur="13.19s" repeatCount="indefinite">
    <mpath xlink:href="#path35"></mpath>
  </animateMotion>
</circle><path id="path36" d="M 1115.734926407149 153.34520350418956
c 0 34.10034975862088 -8.343702600513618 9.794781313646423 -18.13848391416004 9.794781313646423
S 1079.4579585788288 187.44555326281045 1079.4579585788288 153.34520350418956
s 8.343702600513618 -9.794781313646423 18.13848391416004 -9.794781313646423
S 1115.734926407149 119.24485374556868 1115.734926407149 153.34520350418956
z" fill="none" stroke="none"></path>
<circle cx="0" cy="0" r="1.0324039784263666" fill="#d4d4d4" opacity="0.9">
  <animateMotion begin="-5.520594355064642s" dur="13.19s" repeatCount="indefinite">
    <mpath xlink:href="#path36"></mpath>
  </animateMotion>
</circle><path id="path37" d="M 1136.4842357244881 227.55226015273945
c 0 23.72341950011493 -5.804666473432376 6.814173686203224 -12.6188401596356 6.814173686203224
S 1111.2465554052171 251.27567965285436 1111.2465554052171 227.55226015273945
s 5.804666473432376 -6.814173686203224 12.6188401596356 -6.814173686203224
S 1136.4842357244881 203.82884065262454 1136.4842357244881 227.55226015273945
z" fill="none" stroke="none"></path>
<circle cx="0" cy="0" r="0.813877555921866" fill="#666666" opacity="0.9">
  <animateMotion begin="-3.5739977425579137s" dur="13.19s" repeatCount="indefinite">
    <mpath xlink:href="#path37"></mpath>
  </animateMotion>
</circle><path id="path38" d="M 1280.8751749178816 406.28148065968696
c 0 35.13910826002262 -8.597866914686383 10.093148117240538 -18.691015031926923 10.093148117240538
S 1243.4931448540276 441.4205889197096 1243.4931448540276 406.28148065968696
s 8.597866914686383 -10.093148117240538 18.691015031926923 -10.093148117240538
S 1280.8751749178816 371.14237239966434 1280.8751749178816 406.28148065968696
z" fill="none" stroke="none"></path>
<circle cx="0" cy="0" r="1.0556928327983144" fill="#ffffff" opacity="0.9">
  <animateMotion begin="-11.62014483260487s" dur="13.19s" repeatCount="indefinite">
    <mpath xlink:href="#path38"></mpath>
  </animateMotion>
</circle><path id="path39" d="M 959.9997326728356 278.96207544561844
c 0 21.527485832383803 -5.267363554732206 6.183426781642157 -11.450790336374364 6.183426781642157
S 937.098152000087 300.48956127800227 937.098152000087 278.96207544561844
s 5.267363554732206 -6.183426781642157 11.450790336374364 -6.183426781642157
S 959.9997326728356 257.4345896132346 959.9997326728356 278.96207544561844
z" fill="none" stroke="none"></path>
<circle cx="0" cy="0" r="0.7707173112221432" fill="#9b9b9b" opacity="0.9">
  <animateMotion begin="-6.598709623488956s" dur="13.19s" repeatCount="indefinite">
    <mpath xlink:href="#path39"></mpath>
  </animateMotion>
</circle><path id="path40" d="M 382.3077956641961 118.62150364583012
c 0 34.21848904071914 -8.372609020601493 9.82871493722784 -18.20132395782933 9.82871493722784
S 345.9051477485374 152.83999268654927 345.9051477485374 118.62150364583012
s 8.372609020601493 -9.82871493722784 18.20132395782933 -9.82871493722784
S 382.3077956641961 84.40301460511097 382.3077956641961 118.62150364583012
z" fill="none" stroke="none"></path>
<circle cx="0" cy="0" r="0.8449643715711932" fill="#ffffff" opacity="0.9">
  <animateMotion begin="-2.2134043616739154s" dur="13.19s" repeatCount="indefinite">
    <mpath xlink:href="#path40"></mpath>
  </animateMotion>
</circle><path id="path41" d="M 767.7798447509729 696.8529926495113
c 0 29.447514454397577 -7.2052428984164285 8.458328619880156 -15.663571518296584 8.458328619880156
S 736.4527017143796 726.3005071039089 736.4527017143796 696.8529926495113
s 7.2052428984164285 -8.458328619880156 15.663571518296584 -8.458328619880156
S 767.7798447509729 667.4054781951137 767.7798447509729 696.8529926495113
z" fill="none" stroke="none"></path>
<circle cx="0" cy="0" r="0.8893722436400313" fill="#666666" opacity="0.9">
  <animateMotion begin="-11.742454367901269s" dur="13.19s" repeatCount="indefinite">
    <mpath xlink:href="#path41"></mpath>
  </animateMotion>
</circle><path id="path42" d="M 841.6568179771583 190.3002504374929
c 0 36.33346974521882 -8.890104299362052 10.43620939490328 -19.32631369426533 10.43620939490328
S 803.0041905886277 226.63372018271173 803.0041905886277 190.3002504374929
s 8.890104299362052 -10.43620939490328 19.32631369426533 -10.43620939490328
S 841.6568179771583 153.96678069227409 841.6568179771583 190.3002504374929
z" fill="none" stroke="none"></path>
<circle cx="0" cy="0" r="1.4305907037878902" fill="#666666" opacity="0.9">
  <animateMotion begin="-1.8624586284859326s" dur="13.19s" repeatCount="indefinite">
    <mpath xlink:href="#path42"></mpath>
  </animateMotion>
</circle><path id="path43" d="M 1130.2880027142903 362.7513771343406
c 0 22.897978405973074 -5.602696844014687 6.577078903843329 -12.179775747858017 6.577078903843329
S 1105.9284512185743 385.64935554031365 1105.9284512185743 362.7513771343406
s 5.602696844014687 -6.577078903843329 12.179775747858017 -6.577078903843329
S 1130.2880027142903 339.85339872836755 1130.2880027142903 362.7513771343406
z" fill="none" stroke="none"></path>
<circle cx="0" cy="0" r="0.7966632719858892" fill="#ffffff" opacity="0.9">
  <animateMotion begin="-7.235436426189096s" dur="13.19s" repeatCount="indefinite">
    <mpath xlink:href="#path43"></mpath>
  </animateMotion>
</circle><path id="path44" d="M 720.8958314121824 234.72076977091768
c 0 21.84061733847638 -5.3439808381378375 6.273368809987897 -11.617349648125735 6.273368809987897
S 697.661132115931 256.56138710939405 697.661132115931 234.72076977091768
s 5.3439808381378375 -6.273368809987897 11.617349648125735 -6.273368809987897
S 720.8958314121824 212.8801524324413 720.8958314121824 234.72076977091768
z" fill="none" stroke="none"></path>
<circle cx="0" cy="0" r="1.45127445958639" fill="#ffffff" opacity="0.9">
  <animateMotion begin="-12.603965460046142s" dur="13.19s" repeatCount="indefinite">
    <mpath xlink:href="#path44"></mpath>
  </animateMotion>
</circle><path id="path45" d="M 923.2346531484246 620.1851229654211
c 0 29.200014821778968 -7.144684477669322 8.387238299872683 -15.531922777542004 8.387238299872683
S 892.1708075933406 649.3851377872 892.1708075933406 620.1851229654211
s 7.144684477669322 -8.387238299872683 15.531922777542004 -8.387238299872683
S 923.2346531484246 590.9851081436422 923.2346531484246 620.1851229654211
z" fill="none" stroke="none"></path>
<circle cx="0" cy="0" r="1.4949960886136373" fill="#ffffff" opacity="0.9">
  <animateMotion begin="-4.910519629645134s" dur="13.19s" repeatCount="indefinite">
    <mpath xlink:href="#path45"></mpath>
  </animateMotion>
</circle><path id="path46" d="M 1168.504267803458 400.9630687902662
c 0 23.849327454254134 -5.835473738806861 6.8503387368602295 -12.685812475667092 6.8503387368602295
S 1143.132642852124 424.81239624452036 1143.132642852124 400.9630687902662
s 5.835473738806861 -6.8503387368602295 12.685812475667092 -6.8503387368602295
S 1168.504267803458 377.1137413360121 1168.504267803458 400.9630687902662
z" fill="none" stroke="none"></path>
<circle cx="0" cy="0" r="1.3235131244160903" fill="#ffffff" opacity="0.9">
  <animateMotion begin="-5.027927034775573s" dur="13.19s" repeatCount="indefinite">
    <mpath xlink:href="#path46"></mpath>
  </animateMotion>
</circle><path id="path47" d="M 706.1148393637541 50.492605455372946
c 0 23.70263630443287 -5.799581223425062 6.808204044890292 -12.607785268315354 6.808204044890292
S 680.8992688271235 74.19524175980581 680.8992688271235 50.492605455372946
s 5.799581223425062 -6.808204044890292 12.607785268315354 -6.808204044890292
S 706.1148393637541 26.789969150940077 706.1148393637541 50.492605455372946
z" fill="none" stroke="none"></path>
<circle cx="0" cy="0" r="1.0687886551172296" fill="#ffffff" opacity="0.9">
  <animateMotion begin="-5.877411077747767s" dur="13.19s" repeatCount="indefinite">
    <mpath xlink:href="#path47"></mpath>
  </animateMotion>
</circle><path id="path48" d="M 241.13430819597772 574.3174896214064
c 0 31.282735768890745 -7.654286411537097 8.98546665702181 -16.639753068558907 8.98546665702181
S 207.8548020588599 605.600225390297 207.8548020588599 574.3174896214064
s 7.654286411537097 -8.98546665702181 16.639753068558907 -8.98546665702181
S 241.13430819597772 543.0347538525157 241.13430819597772 574.3174896214064
z" fill="none" stroke="none"></path>
<circle cx="0" cy="0" r="1.4927579775259083" fill="#9b9b9b" opacity="0.9">
  <animateMotion begin="-4.3673640376082234s" dur="13.19s" repeatCount="indefinite">
    <mpath xlink:href="#path48"></mpath>
  </animateMotion>
</circle><path id="path49" d="M 376.13405160519454 474.54071834755433
c 0 21.344121705351895 -5.222497864075463 6.130758362175544 -11.353256226251007 6.130758362175544
S 353.42753915269253 495.8848400529062 353.42753915269253 474.54071834755433
s 5.222497864075463 -6.130758362175544 11.353256226251007 -6.130758362175544
S 376.13405160519454 453.19659664220245 376.13405160519454 474.54071834755433
z" fill="none" stroke="none"></path>
<circle cx="0" cy="0" r="1.2876414158609395" fill="#d4d4d4" opacity="0.9">
  <animateMotion begin="-1.504076997861867s" dur="13.19s" repeatCount="indefinite">
    <mpath xlink:href="#path49"></mpath>
  </animateMotion>
</circle><path id="path50" d="M 437.3588691122625 8.050949286416913
c 0 25.855869599778813 -6.326436178669283 7.426685948872638 -13.753122127541921 7.426685948872638
S 409.8526248571786 33.90681888619572 409.8526248571786 8.050949286416913
s 6.326436178669283 -7.426685948872638 13.753122127541921 -7.426685948872638
S 437.3588691122625 -17.8049203133619 437.3588691122625 8.050949286416913
z" fill="none" stroke="none"></path>
<circle cx="0" cy="0" r="1.0791588982683142" fill="#9b9b9b" opacity="0.9">
  <animateMotion begin="-1.6357627811677733s" dur="13.19s" repeatCount="indefinite">
    <mpath xlink:href="#path50"></mpath>
  </animateMotion>
</circle><path id="path51" d="M 902.507346429414 484.8842182865021
c 0 35.03889975520658 -8.573347812444162 10.064364823304018 -18.63771263574818 10.064364823304018
S 865.2319211579178 519.9231180417087 865.2319211579178 484.8842182865021
s 8.573347812444162 -10.064364823304018 18.63771263574818 -10.064364823304018
S 902.507346429414 449.84531853129556 902.507346429414 484.8842182865021
z" fill="none" stroke="none"></path>
<circle cx="0" cy="0" r="0.9875681060519229" fill="#d4d4d4" opacity="0.9">
  <animateMotion begin="-12.17982560532262s" dur="13.19s" repeatCount="indefinite">
    <mpath xlink:href="#path51"></mpath>
  </animateMotion>
</circle><path id="path52" d="M 1326.0347508915986 256.83518723786244
c 0 28.53068694279291 -6.9809127625982645 8.194984547397965 -15.175897309996229 8.194984547397965
S 1295.6829562716064 285.36587418065534 1295.6829562716064 256.83518723786244
s 6.9809127625982645 -8.194984547397965 15.175897309996229 -8.194984547397965
S 1326.0347508915986 228.30450029506954 1326.0347508915986 256.83518723786244
z" fill="none" stroke="none"></path>
<circle cx="0" cy="0" r="1.2541083797133692" fill="#353535" opacity="0.9">
  <animateMotion begin="-12.394587254532338s" dur="13.19s" repeatCount="indefinite">
    <mpath xlink:href="#path52"></mpath>
  </animateMotion>
</circle><path id="path53" d="M 985.7094575215646 585.5188879388021
c 0 26.96766441075847 -6.598471079228136 7.746031266919987 -14.344502346148122 7.746031266919987
S 957.0204528292683 612.4865523495606 957.0204528292683 585.5188879388021
s 6.598471079228136 -7.746031266919987 14.344502346148122 -7.746031266919987
S 985.7094575215646 558.5512235280436 985.7094575215646 585.5188879388021
z" fill="none" stroke="none"></path>
<circle cx="0" cy="0" r="1.4253135595060895" fill="#d4d4d4" opacity="0.9">
  <animateMotion begin="-5.7338708707095085s" dur="13.19s" repeatCount="indefinite">
    <mpath xlink:href="#path53"></mpath>
  </animateMotion>
</circle><path id="path54" d="M 1285.6231823952385 350.9993813275116
c 0 22.55145978711157 -5.5179103734421915 6.477546960127792 -11.995457333569984 6.477546960127792
S 1261.6322677280987 373.5508411146232 1261.6322677280987 350.9993813275116
s 5.5179103734421915 -6.477546960127792 11.995457333569984 -6.477546960127792
S 1285.6231823952385 328.44792154040005 1285.6231823952385 350.9993813275116
z" fill="none" stroke="none"></path>
<circle cx="0" cy="0" r="1.4434943683310224" fill="#d4d4d4" opacity="0.9">
  <animateMotion begin="-1.3346544114963907s" dur="13.19s" repeatCount="indefinite">
    <mpath xlink:href="#path54"></mpath>
  </animateMotion>
</circle><path id="path55" d="M 934.2200824294082 56.21787703864551
c 0 29.301028732747334 -7.1694006473743475 8.416252933874235 -15.585653581248582 8.416252933874235
S 903.048775266911 85.51890577139284 903.048775266911 56.21787703864551
s 7.1694006473743475 -8.416252933874235 15.585653581248582 -8.416252933874235
S 934.2200824294082 26.916848305898178 934.2200824294082 56.21787703864551
z" fill="none" stroke="none"></path>
<circle cx="0" cy="0" r="0.7740363484638764" fill="#d4d4d4" opacity="0.9">
  <animateMotion begin="-12.105476894313355s" dur="13.19s" repeatCount="indefinite">
    <mpath xlink:href="#path55"></mpath>
  </animateMotion>
</circle><path id="path56" d="M 300.64947973815043 171.55488336123761
c 0 27.28988306319013 -6.677311813333755 7.838583433043974 -14.515895246377728 7.838583433043974
S 271.61768924539496 198.84476642442775 271.61768924539496 171.55488336123761
s 6.677311813333755 -7.838583433043974 14.515895246377728 -7.838583433043974
S 300.64947973815043 144.26500029804748 300.64947973815043 171.55488336123761
z" fill="none" stroke="none"></path>
<circle cx="0" cy="0" r="0.7921253612069515" fill="#353535" opacity="0.9">
  <animateMotion begin="-1.4838602755388435s" dur="13.19s" repeatCount="indefinite">
    <mpath xlink:href="#path56"></mpath>
  </animateMotion>
</circle><path id="path57" d="M 1307.309526438152 123.4050670423338
c 0 29.360857533834196 -7.184039609342409 8.433437802271525 -15.617477411613933 8.433437802271525
S 1276.0745716149243 152.765924576168 1276.0745716149243 123.4050670423338
s 7.184039609342409 -8.433437802271525 15.617477411613933 -8.433437802271525
S 1307.309526438152 94.0442095084996 1307.309526438152 123.4050670423338
z" fill="none" stroke="none"></path>
<circle cx="0" cy="0" r="1.2715097501780264" fill="#353535" opacity="0.9">
  <animateMotion begin="-0.17572182484819504s" dur="13.19s" repeatCount="indefinite">
    <mpath xlink:href="#path57"></mpath>
  </animateMotion>
</circle><path id="path58" d="M 749.5534524840477 511.89704398356355
c 0 36.76848096902911 -8.996543215826271 10.56115942727432 -19.55770264310059 10.56115942727432
S 710.4380471978466 548.6655249525927 710.4380471978466 511.89704398356355
s 8.996543215826271 -10.56115942727432 19.55770264310059 -10.56115942727432
S 749.5534524840477 475.12856301453445 749.5534524840477 511.89704398356355
z" fill="none" stroke="none"></path>
<circle cx="0" cy="0" r="0.9282130887032931" fill="#ffffff" opacity="0.9">
  <animateMotion begin="-1.0188784441686884s" dur="13.19s" repeatCount="indefinite">
    <mpath xlink:href="#path58"></mpath>
  </animateMotion>
</circle><path id="path59" d="M 1234.374623617232 203.37510330999976
c 0 22.28544689545494 -5.452822112717697 6.401139001885993 -11.85396111460369 6.401139001885993
S 1210.6667013880246 225.66055020545468 1210.6667013880246 203.37510330999976
s 5.452822112717697 -6.401139001885993 11.85396111460369 -6.401139001885993
S 1234.374623617232 181.08965641454483 1234.374623617232 203.37510330999976
z" fill="none" stroke="none"></path>
<circle cx="0" cy="0" r="0.9288135079286836" fill="#666666" opacity="0.9">
  <animateMotion begin="-1.7380270903980637s" dur="13.19s" repeatCount="indefinite">
    <mpath xlink:href="#path59"></mpath>
  </animateMotion>
</circle><path id="path60" d="M 831.2939682950162 484.9690749141088
c 0 37.457991992994046 -9.165253359987904 10.759210466072759 -19.924463826060663 10.759210466072759
S 791.4450406428948 522.4270669071028 791.4450406428948 484.9690749141088
s 9.165253359987904 -10.759210466072759 19.924463826060663 -10.759210466072759
S 831.2939682950162 447.51108292111473 831.2939682950162 484.9690749141088
z" fill="none" stroke="none"></path>
<circle cx="0" cy="0" r="1.4191685496127806" fill="#9b9b9b" opacity="0.9">
  <animateMotion begin="-2.433597257678606s" dur="13.19s" repeatCount="indefinite">
    <mpath xlink:href="#path60"></mpath>
  </animateMotion>
</circle></g>
</svg>